<svg xmlns="http://www.w3.org/2000/svg" version="1.1" xmlns:xlink="http://www.w3.org/1999/xlink" xmlns:svgjs="http://svgjs.dev/svgjs" width="1500" height="1500" viewBox="0 0 1500 1500"><g transform="matrix(1,0,0,1,-0.323615160350073,-0.3236151603499593)"><svg viewBox="0 0 343 343" data-background-color="#ffffff" preserveAspectRatio="xMidYMid meet" height="1500" width="1500" xmlns="http://www.w3.org/2000/svg" xmlns:xlink="http://www.w3.org/1999/xlink"><g id="tight-bounds" transform="matrix(1,0,0,1,0.0740000000000407,0.07400000000001228)"><svg viewBox="0 0 342.85155851775386 342.85155851775386" height="342.85155851775386" width="342.85155851775386"><g><svg></svg></g><g><svg viewBox="0 0 342.85155851775386 342.85155851775386" height="342.85155851775386" width="342.85155851775386"><g><path d="M0 171.426c0-94.676 76.75-171.426 171.426-171.426 94.676 0 171.426 76.75 171.426 171.426 0 94.676-76.75 171.426-171.426 171.426-94.676 0-171.426-76.75-171.426-171.426zM171.426 329.803c87.47 0 158.378-70.908 158.377-158.377 0-87.47-70.908-158.378-158.377-158.378-87.47 0-158.378 70.908-158.378 158.378 0 87.47 70.908 158.378 158.378 158.377z" data-fill-palette-color="tertiary" fill="#4d0a86" stroke="transparent"></path><ellipse rx="164.56874808852186" ry="164.56874808852186" cx="171.42577925887693" cy="171.42577925887693" fill="#4d0a86" stroke="transparent" stroke-width="0" fill-opacity="1" data-fill-palette-color="tertiary"></ellipse></g><g transform="matrix(1,0,0,1,64.84655864529837,99.08173068914924)"><svg viewBox="0 0 213.1584412271571 144.68809713945538" height="144.68809713945538" width="213.1584412271571"><g><svg viewBox="0 0 213.1584412271571 144.68809713945538" height="144.68809713945538" width="213.1584412271571"><g><svg viewBox="0 0 213.1584412271571 144.68809713945538" height="144.68809713945538" width="213.1584412271571"><g id="textblocktransform"><svg viewBox="0 0 213.1584412271571 144.68809713945538" height="144.68809713945538" width="213.1584412271571" id="textblock"><g><svg viewBox="0 0 213.1584412271571 144.68809713945538" height="144.68809713945538" width="213.1584412271571"><g transform="matrix(1,0,0,1,0,0)"><svg width="213.1584412271571" viewBox="3 -34.55 50.9 34.55" height="144.68809713945538" data-palette-color="#f0ee4d"><path d="M24.6-34.55L24.6 0 16.5 0 7.75-28.3Q8.15-24.7 8.38-21.68 8.6-18.65 8.6-14.5L8.6-14.5 8.6 0 3 0 3-34.55 11.05-34.55 19.8-6.25Q19.5-8.05 19.23-11.35 18.95-14.65 18.95-18.05L18.95-18.05 18.95-34.55 24.6-34.55ZM30.6-34.55L36.95-34.55 36.95 0 30.6 0 30.6-34.55ZM46.7-34.55L53.15-34.55 43.75-18.9 53.9 0 46.9 0 37.2-18.45 46.7-34.55Z" opacity="1" transform="matrix(1,0,0,1,0,0)" fill="#f0ee4d" class="wordmark-text-0" data-fill-palette-color="quaternary" id="text-0"></path></svg></g></svg></g></svg></g></svg></g><g></g></svg></g></svg></g></svg></g><defs></defs></svg><rect width="342.85155851775386" height="342.85155851775386" fill="none" stroke="none" visibility="hidden"></rect></g></svg></g></svg>