<svg xmlns="http://www.w3.org/2000/svg" version="1.1" xmlns:xlink="http://www.w3.org/1999/xlink" xmlns:svgjs="http://svgjs.dev/svgjs" width="1500" height="1500" viewBox="0 0 1500 1500"><rect width="1500" height="1500" fill="#000000"></rect><g transform="matrix(0.6666666666666666,0,0,0.6666666666666666,250,187.66666666666674)"><svg viewBox="0 0 320 360" data-background-color="#ffffff" preserveAspectRatio="xMidYMid meet" height="1687" width="1500" xmlns="http://www.w3.org/2000/svg" xmlns:xlink="http://www.w3.org/1999/xlink"><g id="tight-bounds" transform="matrix(1,0,0,1,0,0)"><svg viewBox="0 0 320 360" height="360" width="320"><g><svg></svg></g><g><svg viewBox="0 0 320 360" height="360" width="320"><g><path d="M160 42.18c72.417 0 131.943 56.114 137.63 127.014h22.37c-1.137-17.82-5.308-34.882-12.133-51.185-7.962-18.957-19.716-36.398-34.502-50.805-14.787-14.787-31.848-26.161-50.806-34.503-20.095-8.341-40.948-12.891-62.559-12.891-21.611 0-42.464 4.171-62.559 12.512-18.957 7.962-36.398 19.716-50.806 34.503-14.787 14.787-26.161 31.848-34.502 50.805-6.825 16.303-10.995 33.744-12.133 51.185h22.37c5.687-70.521 65.213-126.635 137.63-126.635zM160 318.199c-72.417 0-131.943-56.114-137.63-127.014h-22.37c1.137 17.82 5.308 34.882 12.133 51.185 7.962 18.957 19.716 36.398 34.502 50.805 14.787 14.787 31.848 26.161 50.806 34.503 19.716 8.341 40.569 12.512 62.559 12.512 21.991 0 42.464-4.171 62.559-12.512 18.957-7.962 36.398-19.716 50.806-34.503 14.787-14.787 26.161-31.848 34.502-50.805 6.825-16.303 10.995-33.744 12.133-51.185h-22.37c-5.687 70.9-65.213 127.014-137.63 127.014z" fill="#ffffff" fill-rule="nonzero" stroke="none" stroke-width="1" stroke-linecap="butt" stroke-linejoin="miter" stroke-miterlimit="10" stroke-dasharray="" stroke-dashoffset="0" font-family="none" font-weight="none" font-size="none" text-anchor="none" style="mix-blend-mode: normal" data-fill-palette-color="tertiary"></path></g><g transform="matrix(1,0,0,1,56.000000000000014,109.40667976424362)"><svg viewBox="0 0 207.99999999999997 141.18664047151276" height="141.18664047151276" width="207.99999999999997"><g><svg viewBox="0 0 208.00000000000003 141.1866404715128" height="141.18664047151276" width="207.99999999999997"><g><svg viewBox="0 0 208.00000000000003 141.1866404715128" height="141.1866404715128" width="208.00000000000003"><g id="textblocktransform"><svg viewBox="0 0 208.00000000000003 141.1866404715128" height="141.1866404715128" width="208.00000000000003" id="textblock"><g><svg viewBox="0 0 208.00000000000003 141.1866404715128" height="141.1866404715128" width="208.00000000000003"><g transform="matrix(1,0,0,1,0,0)"><svg width="208.00000000000003" viewBox="3 -34.55 50.9 34.55" height="141.1866404715128" data-palette-color="#000000"><path d="M24.6-34.55L24.6 0 16.5 0 7.75-28.3Q8.15-24.7 8.38-21.68 8.6-18.65 8.6-14.5L8.6-14.5 8.6 0 3 0 3-34.55 11.05-34.55 19.8-6.25Q19.5-8.05 19.23-11.35 18.95-14.65 18.95-18.05L18.95-18.05 18.95-34.55 24.6-34.55ZM30.6-34.55L36.95-34.55 36.95 0 30.6 0 30.6-34.55ZM46.7-34.55L53.15-34.55 43.75-18.9 53.9 0 46.9 0 37.2-18.45 46.7-34.55Z" opacity="1" transform="matrix(1,0,0,1,0,0)" fill="#ffffff" class="wordmark-text-0" data-fill-palette-color="primary" id="text-0"></path></svg></g></svg></g></svg></g></svg></g><g></g></svg></g></svg></g></svg></g><defs></defs></svg><rect width="320" height="360" fill="none" stroke="none" visibility="hidden"></rect></g></svg></g></svg>